<svg width="64" height="64" viewBox="0 0 64 64" fill="none" xmlns="http://www.w3.org/2000/svg">
<g clip-path="url(#clip0_64918_4771)">
<mask id="mask0_64918_4771" style="mask-type:luminance" maskUnits="userSpaceOnUse" x="0" y="0" width="64" height="64">
<path d="M64 0H0V64H64V0Z" fill="white"/>
</mask>
<g mask="url(#mask0_64918_4771)">
<path d="M32 64C49.6731 64 64 49.6731 64 32C64 14.3269 49.6731 0 32 0C14.3269 0 0 14.3269 0 32C0 49.6731 14.3269 64 32 64Z" fill="white"/>
<path d="M23.7866 15.8695C23.9977 15.6704 24.2228 15.4807 24.4694 15.3054C26.1926 14.0585 28.5487 13.4375 31.5236 13.4375C34.4984 13.4375 36.9731 14.2151 38.9381 15.7723C40.6566 17.133 41.7564 18.8918 42.2281 21.0393H50.4036C50.1736 18.4011 49.3298 16.0236 47.8696 13.9045C46.2388 11.5341 44.0036 9.69234 41.1709 8.37679C38.3407 7.05886 34.9796 6.3999 31.5236 6.3999C28.7051 6.3999 26.1262 6.81471 23.7866 7.64434V15.8695Z" fill="black"/>
<path d="M41.0405 48.1305C40.9742 48.1968 40.5451 48.512 40.2654 48.704C38.3715 49.9982 35.8873 50.643 32.8153 50.643C29.3095 50.643 26.4509 49.7305 24.244 47.9099C22.2411 46.2649 21.0559 44.1506 20.6672 41.5621L12.5439 41.491C12.7525 44.4586 13.6225 47.1254 15.1608 49.4887C16.8342 52.0723 19.1905 54.0753 22.2151 55.4833C25.2444 56.8913 28.743 57.6 32.7324 57.6C35.7807 57.6 38.5493 57.1378 41.0452 56.211V48.1305H41.0405Z" fill="black"/>
<path d="M21.2911 32.9766C23.5975 33.9391 26.3092 34.6834 29.431 35.2072L29.7936 35.2783C33.1004 35.9017 35.6201 36.4468 37.3504 36.9281C39.0808 37.4093 40.4721 38.1536 41.5293 39.1587C42.5794 40.1636 43.1128 41.5005 43.1128 43.1787C43.1128 44.857 42.6387 46.2721 41.7001 47.4099H50.5296C51.1482 45.8217 51.4565 44.1198 51.4565 42.3064C51.4565 39.1918 50.6979 36.6792 49.1856 34.7616L49.1998 34.7686C47.6875 32.8511 45.751 31.4431 43.4019 30.5281C41.0529 29.6155 38.2441 28.8712 34.9801 28.2976H34.9089C31.7445 27.7239 29.2958 27.1787 27.5655 26.6478C25.8423 26.1239 24.4579 25.4081 23.4292 24.4955C22.4005 23.59 21.8813 22.2934 21.8813 20.6176C21.8813 18.9417 22.2961 17.6783 23.1306 16.5903H14.3293C13.8387 18.0243 13.5898 19.5603 13.5898 21.1983C13.5898 24.2632 14.2914 26.7544 15.7113 28.665C17.1241 30.5827 18.9824 32.0191 21.2888 32.9743L21.2911 32.9766Z" fill="black"/>
</g>
</g>
<defs>
<clipPath id="clip0_64918_4771">
<rect width="64" height="64" fill="white"/>
</clipPath>
</defs>
</svg>
