<svg xmlns="http://www.w3.org/2000/svg" width="286" height="24" fill="none"><path fill="#F6F6F5" d="M37.242 3.951h3.22v13.333h8.162v2.89H37.242V3.95Zm20.048 0h5.778l5.4 16.223h-3.321l-1.344-4.031h-7.325l-1.343 4.03H51.89l5.4-16.221Zm5.576 9.405L60.788 7.12H59.47l-2.078 6.236h5.474Zm9.521-9.405h5.526l5.83 12.648h.406V3.951h3.169v16.223h-5.526L75.936 7.526h-.38v12.648h-3.17V3.95Zm24.231 0h5.779l5.399 16.223h-3.321l-1.343-4.031h-7.326l-1.343 4.03h-3.244l5.399-16.222Zm5.576 9.405-2.078-6.236h-1.318l-2.078 6.236h5.474ZM.001 15.181h3.295c.177 1.42.915 2.484 3.485 2.484H7.2c2.45 0 3.13-.862 3.13-2.028 0-1.064-.85-1.824-2.04-1.951l-3.449-.52c-3.443-.472-4.41-2.697-4.41-4.69 0-3.169 2.034-4.904 6.236-4.904 4.203 0 6.21 1.8 6.362 5.348h-3.27c-.224-1.493-.81-2.46-3.08-2.46h-.278c-2.014 0-2.94.736-2.94 1.927s.887 1.901 2.002 2.028l3.586.52c3.247.403 4.335 2.36 4.335 4.664 0 3.195-1.774 4.956-6.667 4.956-4.462 0-6.64-1.824-6.717-5.374h.001Zm18.796-9.338c1.49-1.522 3.501-2.27 6.055-2.27s4.565.77 6.031 2.292c1.49 1.522 2.223 3.588 2.223 6.221s-.733 4.7-2.2 6.22c-1.465 1.499-3.476 2.25-6.054 2.25-2.578 0-4.589-.75-6.055-2.25-1.466-1.521-2.2-3.587-2.2-6.22 0-2.633.734-4.723 2.2-6.243Zm1.275 7.33c0 2.848 1.88 4.5 4.779 4.5 2.898 0 4.756-1.739 4.756-4.5v-2.24c0-2.849-1.858-4.48-4.756-4.48-2.899 0-4.779 1.762-4.779 4.48v2.24ZM133.002 24c-.407 0-.618-.545-.335-.868l4.481-4.849a.9.9 0 0 1 .662-.287h22.726c.408 0 .619.545.335.868l-4.481 4.849a.9.9 0 0 1-.662.287h-22.726Zm0-17.996c-.407 0-.618-.545-.335-.868l4.481-4.85A.9.9 0 0 1 137.81 0h22.726c.408 0 .619.544.335.868l-4.481 4.849a.9.9 0 0 1-.662.287h-22.726Zm22.704 2.943c.255 0 .48.096.662.287l4.503 4.849c.284.33.065.868-.342.868h-22.806a.888.888 0 0 1-.662-.287l-4.503-4.849c-.284-.33-.065-.868.342-.868h22.806Zm88.579 8.387h3.194V6.79h-3.194V3.95h9.607v2.84h-3.219v10.544h3.219v2.838h-9.607v-2.838Zm14.227-13.383h3.219v13.333h8.162v2.89h-11.381V3.95Zm15.48 0h11.888V6.69h-8.694v3.827h8.061v2.687h-8.061v4.233h8.821v2.738h-12.015V3.95Zm-76.744 0-2.864 12.446h-.417L191.102 3.95h-5.957v16.223h3.167L188.159 7.5h.739l2.915 12.673h4.724L199.452 7.5h.739l-.153 12.673h3.168V3.95h-5.958Zm40.412 7.503v-.1c1.521-.66 2.281-1.928 2.281-3.424 0-2.332-1.723-3.979-4.917-3.979h-7.477v16.223h7.857c3.473 0 5.247-2.105 5.247-4.664 0-1.952-1.09-3.371-2.991-4.056Zm-6.919-4.969h4.419c.891 0 1.613.723 1.613 1.614v.753c0 .892-.722 1.613-1.613 1.613h-4.419v-3.98Zm6.716 9.387c0 .992-.804 1.797-1.795 1.797h-4.921v-4.745h4.921c.991 0 1.795.805 1.795 1.796v1.152ZM209.102 5.843c1.49-1.522 3.501-2.27 6.055-2.27s4.565.77 6.031 2.292c1.489 1.522 2.223 3.588 2.223 6.221s-.734 4.7-2.2 6.22c-1.465 1.499-3.477 2.25-6.054 2.25-2.578 0-4.589-.75-6.055-2.25-1.466-1.521-2.2-3.587-2.2-6.22 0-2.633.734-4.723 2.2-6.243Zm1.276 7.33c0 2.848 1.88 4.5 4.779 4.5 2.898 0 4.756-1.739 4.756-4.5v-2.24c0-2.849-1.858-4.48-4.756-4.48-2.899 0-4.779 1.762-4.779 4.48v2.24Z"/></svg>